 <svg  version="1.0" xmlns="http://www.w3.org/2000/svg"  width="300.000000pt" height="59.000000pt" viewBox="0 0 300.000000 59.000000"  preserveAspectRatio="xMidYMid meet">  <g transform="translate(0.000000,59.000000) scale(0.100000,-0.100000)" fill="#ffffff" stroke="none"> <path d="M253 529 c-35 -13 -43 -42 -43 -153 0 -58 -4 -106 -8 -106 -5 0 -17 9 -27 20 -28 31 -98 28 -124 -6 -41 -52 -20 -172 36 -209 31 -20 142 -29 194 -15 24 7 50 25 72 50 l34 40 24 -35 c34 -49 76 -62 187 -60 82 2 96 5 117 25 l25 23 26 -24 c35 -32 93 -32 128 0 l26 24 23 -21 c48 -45 119 -34 145 21 l14 28 38 -34 c42 -39 108 -54 182 -42 92 16 128 69 128 192 -1 108 -23 157 -86 185 -38 16 -59 19 -106 14 -73 -7 -112 -27 -140 -70 l-22 -33 -20 30 c-40 58 -61 66 -179 68 -99 2 -109 0 -132 -21 l-24 -23 -29 25 c-37 31 -94 29 -129 -3 l-23 -22 -25 23 c-29 28 -96 31 -123 6 -27 -23 -32 -20 -32 18 0 64 -66 108 -127 85z m87 -209 c0 -179 0 -181 -25 -205 -22 -23 -32 -25 -110 -25 -78 0 -88 2 -110 25 -22 21 -25 33 -25 92 l0 68 45 0 45 0 0 -48 c0 -57 14 -87 40 -87 45 0 51 22 50 189 -1 86 -1 159 0 164 0 4 20 7 45 7 l45 0 0 -180z m182 -36 c3 -108 6 -128 20 -138 13 -8 23 -8 35 0 15 10 18 30 21 138 l3 126 49 0 50 0 0 -160 0 -160 -50 0 c-32 0 -50 4 -50 12 0 9 -3 9 -12 0 -14 -14 -77 -16 -112 -2 -44 16 -56 56 -56 190 l0 120 50 0 49 0 3 -126z m354 109 c-6 -16 -6 -16 12 0 31 28 96 22 134 -12 l33 -29 3 -131 4 -131 -51 0 -50 0 -3 126 c-3 108 -6 128 -20 138 -13 8 -23 8 -35 0 -15 -10 -18 -30 -21 -138 l-3 -126 -49 0 -50 0 0 160 0 160 51 0 c44 0 50 -2 45 -17z m510 -16 c22 -26 24 -37 24 -128 0 -98 -1 -101 -29 -130 -27 -27 -35 -29 -104 -29 -67 0 -79 3 -106 26 -31 26 -31 26 -31 128 0 147 19 168 149 163 66 -2 75 -5 97 -30z"/> <path d="M1246 344 c-12 -11 -16 -36 -16 -90 0 -83 11 -114 40 -114 38 0 50 27 50 110 0 80 -12 110 -45 110 -7 0 -21 -7 -29 -16z"/> <path d="M1658 532 c-15 -2 -36 -15 -47 -29 -19 -23 -20 -40 -20 -213 1 -187 1 -188 26 -211 18 -17 35 -23 65 -23 56 2 76 25 79 94 3 74 6 80 44 80 36 0 88 32 118 72 40 54 17 166 -43 209 -25 17 -156 30 -222 21z m216 -61 c23 -21 26 -33 26 -88 0 -56 -3 -67 -26 -88 -23 -21 -37 -25 -92 -25 l-65 0 5 -90 5 -90 -48 0 -49 0 0 206 0 206 109 -4 c100 -3 112 -5 135 -27z"/> <path d="M1720 385 l0 -65 33 0 c44 0 57 15 57 67 0 46 -17 63 -64 63 -25 0 -26 -2 -26 -65z"/> <path d="M2597 512 c-10 -10 -17 -26 -17 -35 0 -17 -15 -30 -40 -34 -30 -5 -116 -5 -147 0 -37 6 -83 -23 -83 -52 0 -31 -10 -29 -48 9 -33 34 -45 39 -102 44 -36 4 -74 4 -85 2 -11 -2 -25 -5 -32 -5 -7 -1 -28 -17 -48 -36 -39 -39 -45 -77 -19 -106 15 -17 15 -21 -4 -59 -32 -66 -11 -134 52 -167 23 -12 59 -17 133 -17 92 0 105 2 126 22 l23 22 22 -22 c33 -33 98 -30 128 6 21 23 24 38 24 105 0 73 2 79 22 84 12 4 32 4 44 1 20 -5 22 -14 26 -90 5 -102 22 -126 87 -128 31 0 46 6 68 26 l28 27 33 -26 c25 -19 45 -25 83 -25 111 0 103 56 -23 155 -15 12 -28 29 -27 37 0 8 22 33 50 55 91 73 100 116 29 135 -40 11 -77 1 -122 -32 -22 -16 -29 -8 -34 43 -6 59 -27 79 -84 79 -33 0 -52 -6 -63 -18z m111 -112 c-1 -55 -1 -100 0 -100 2 0 32 25 67 56 60 52 66 55 111 52 l47 -3 -91 -75 c-51 -41 -92 -78 -92 -81 0 -3 41 -38 90 -78 50 -40 90 -75 90 -77 0 -2 -21 -4 -47 -4 -44 0 -53 5 -110 55 -33 30 -63 55 -65 55 -3 0 -3 -25 0 -55 l4 -55 -51 0 -51 0 0 205 0 205 51 0 51 0 -4 -100z m-479 -15 l30 -26 3 -134 3 -135 -47 0 c-31 0 -48 4 -48 12 0 9 -3 9 -12 0 -7 -7 -34 -12 -61 -12 -40 0 -53 5 -78 29 -37 37 -38 79 -3 120 24 29 31 31 90 31 l64 0 0 35 c0 40 -20 55 -75 55 -28 0 -38 -5 -47 -25 -7 -17 -19 -25 -36 -25 -21 0 -23 3 -17 27 14 57 41 71 137 72 57 1 71 -3 97 -24z m208 -12 c-6 -35 -5 -36 8 -19 8 11 15 23 15 26 0 12 50 30 80 30 29 0 30 -1 30 -50 l0 -51 -49 2 c-75 4 -81 -6 -81 -122 l0 -99 -50 0 -50 0 0 160 0 160 51 0 52 0 -6 -37z"/> <path d="M2114 220 c-42 -17 -40 -66 2 -76 33 -8 54 12 54 52 0 36 -13 42 -56 24z"/> </g> </svg> 